<svg height="100%" width="100%" id="svg" viewBox="0 0 1440 600" xmlns="http://www.w3.org/2000/svg" class="transition duration-300 ease-in-out delay-150"><defs><linearGradient id="gradient"><stop offset="5%" stop-color="#002bdc88"></stop><stop offset="95%" stop-color="#32ded488"></stop></linearGradient></defs><path d="M 0,600 C 0,600 0,200 0,200 C 91.25358851674642,239.1866028708134 182.50717703349284,278.3732057416268 279,271 C 375.49282296650716,263.6267942583732 477.22488038277504,209.6937799043062 583,199 C 688.775119617225,188.3062200956938 798.5933014354067,220.8516746411483 879,243 C 959.4066985645933,265.1483253588517 1010.401913875598,276.8995215311005 1099,268 C 1187.598086124402,259.1004784688995 1313.799043062201,229.55023923444975 1440,200 C 1440,200 1440,600 1440,600 Z" stroke="none" stroke-width="0" fill="url(#gradient)" class="transition-all duration-300 ease-in-out delay-150"></path><defs><linearGradient id="gradient"><stop offset="5%" stop-color="#002bdcff"></stop><stop offset="95%" stop-color="#32ded4ff"></stop></linearGradient></defs><path d="M 0,600 C 0,600 0,400 0,400 C 109.5885167464115,373.17703349282294 219.177033492823,346.35406698564594 330,360 C 440.822966507177,373.64593301435406 552.8803827751195,427.7607655502392 623,419 C 693.1196172248805,410.2392344497608 721.3014354066987,338.60287081339715 814,342 C 906.6985645933013,345.39712918660285 1063.913875598086,423.8277511961723 1179,446 C 1294.086124401914,468.1722488038277 1367.0430622009571,434.0861244019138 1440,400 C 1440,400 1440,600 1440,600 Z" stroke="none" stroke-width="0" fill="url(#gradient)" class="transition-all duration-300 ease-in-out delay-150"></path></svg>