<svg xmlns="http://www.w3.org/2000/svg" version="1.1" xmlns:xlink="http://www.w3.org/1999/xlink" xmlns:svgjs="http://svgjs.dev/svgjs" viewBox="0 0 1920 1080"><rect width="1920" height="1080" fill="#2ef59f"></rect><g transform="matrix(0.9959292143521045,0.5749999999999998,-0.5749999999999998,0.9959292143521045,314.355183411285,-542.3478789415121)"><path d="M0,-1080C-3.8852028852214837,-934.1401997709282,-19.18859130435208,-473.6518708846598,-23.311217311328903,-204.84119862556918C-27.433843318305726,63.96947363352143,-25.682962116024864,267.1695842264658,-24.735756041860938,532.8640335545439C-23.788549967697012,798.558482882622,-21.750606873322162,1118.1361696019896,-17.62798086634534,1389.325497342899C-13.505354859368516,1660.5148250838085,-2.9379968110575567,2031.55424955715,0,2160L 1920 2160 L 1920 -1080 Z" fill="url(&quot;#SvgjsLinearGradient1136&quot;)"></path><path d="M320,-1080C325.7716991252956,-993.2672267701512,358.05821033337776,-728.8331015946115,354.6301947517734,-559.6033606209069C351.202179170169,-390.3736196472022,299.78495747880226,-238.3570794942394,299.43190651037366,-64.62155415777164C299.0788555419451,109.11397117869612,359.7878179062405,280.8582222357679,352.51188894120185,482.8097913978997C345.2359599761632,684.7613605600314,251.51902538788158,945.1786247488043,255.77633272014168,1147.0878608150188C260.0336400524018,1348.9970968812331,367.35178838811936,1525.446517931023,378.05573293476243,1694.2652077951866C388.7596774814055,1863.0838976593502,329.6759554891271,2082.377534632531,320,2160L 1920 2160 L 1920 -1080 Z" fill="url(&quot;#SvgjsLinearGradient1137&quot;)"></path><path d="M640,-1080C640.5730095152487,-990.6765195345586,646.7465773453798,-690.7122248647865,643.4380570914923,-544.0591172073516C640.1295368376047,-397.40600954991663,618.7926806764738,-341.6678283870667,620.1488784766749,-200.08135405539008C621.505076276876,-58.49487972371347,637.3536892644992,134.35859432501593,651.5752438926993,305.459728782708C665.7967985208994,476.56086324040007,702.8655720811655,674.6952984582573,705.4782062458758,826.5254526907622C708.090840410586,978.3556069232671,678.7575291104371,1083.9736372344557,667.2510488809609,1216.4406541777378C655.7445686514847,1348.9076711210198,640.9811663491787,1464.0676633800779,636.4393248690185,1621.3275543504549C631.8974833888583,1778.5874453208319,639.4065541448364,2070.221259058409,640,2160L 1920 2160 L 1920 -1080 Z" fill="url(&quot;#SvgjsLinearGradient1138&quot;)"></path><path d="M960,-1080C958.6824076529149,-993.376919100664,959.5582890934224,-745.2104727286144,952.0944459174896,-560.2615146039841C944.6306027415567,-375.3125564793538,912.9626930472957,-165.1680925074748,915.2169409444025,29.69374874778184C917.4711888415093,224.5555900030385,959.1782316356932,445.06944657374856,965.6199333001301,608.9095329275559C972.061634964567,772.7496192813633,956.8189075574358,838.8308889735786,953.8671509310242,1012.7342668706257C950.9153943046126,1186.6376447676728,946.8872520301646,1461.1188447882762,947.9093935416606,1652.3298003098387C948.9315350531566,1843.5407558314012,957.9848989236101,2075.38830005164,960,2160L 1920 2160 L 1920 -1080 Z" fill="url(&quot;#SvgjsLinearGradient1139&quot;)"></path><path d="M1280,-1080C1279.906015675649,-1011.3171777160719,1279.9085875957776,-808.7447949237427,1279.4360940538938,-667.9030662964316C1278.96360051201,-527.0613376691205,1279.984920613992,-367.0727506510298,1277.165038748697,-234.94962823613352C1274.345156883402,-102.82650582123722,1260.3759620201354,-14.259550676949829,1262.5168028621238,124.83566819294623C1264.6576437041122,263.9308870628423,1282.2161331462175,459.98943939928347,1290.010083800627,599.6216849832429C1297.8040344550363,739.2539305672022,1307.9738657424905,848.9664646961288,1309.28050678858,962.6291416967025C1310.5871478346694,1076.2918186972763,1303.4817574736144,1140.5426648160667,1297.8499300771632,1281.5977469866853C1292.218102680712,1422.6528291573038,1278.4645307560666,1662.5592592181952,1275.4895424098727,1808.9596347204142C1272.5145540636788,1955.3600102226333,1279.2482570683121,2101.4932724534024,1280,2160L 1920 2160 L 1920 -1080 Z" fill="url(&quot;#SvgjsLinearGradient1140&quot;)"></path><path d="M1600,-1080C1609.7096156843324,-982.3729630246397,1661.3727304500242,-673.1113112550469,1658.257694105995,-494.2377781478386C1655.1426577619657,-315.3642450406303,1585.0851178512432,-189.52830595296024,1581.3097819358243,-6.7588013567503396C1577.5344460204053,176.01070323945953,1630.2969316866738,425.3860802896488,1635.6056786134811,602.3792494294207C1640.9144255402884,779.3724185691926,1629.1086277121244,892.9843791532342,1613.1622634966686,1055.2002134818808C1597.2158992812128,1217.4160478105275,1542.1212039035238,1391.5409576482812,1539.9274933207457,1575.674255401301C1537.7337827379677,1759.8075531543209,1589.9879155534577,2062.6123759002166,1600,2160L 1920 2160 L 1920 -1080 Z" fill="url(&quot;#SvgjsLinearGradient1141&quot;)"></path></g><defs><linearGradient x1="0.1" y1="0" x2="0" y2="1" id="SvgjsLinearGradient1136"><stop stop-color="#2ef59f" offset="0"></stop><stop stop-color="#2ef57e" offset="0"></stop></linearGradient><linearGradient x1="0.1" y1="0" x2="0" y2="1" id="SvgjsLinearGradient1137"><stop stop-color="#47f6ab" offset="0"></stop><stop stop-color="#47f68e" offset="0.16666666666666666"></stop></linearGradient><linearGradient x1="0.1" y1="0" x2="0" y2="1" id="SvgjsLinearGradient1138"><stop stop-color="#60f7b6" offset="0"></stop><stop stop-color="#60f79d" offset="0.3333333333333333"></stop></linearGradient><linearGradient x1="0.1" y1="0" x2="0" y2="1" id="SvgjsLinearGradient1139"><stop stop-color="#7af9c2" offset="0"></stop><stop stop-color="#7af9ad" offset="0.5"></stop></linearGradient><linearGradient x1="0.1" y1="0" x2="0" y2="1" id="SvgjsLinearGradient1140"><stop stop-color="#93facd" offset="0"></stop><stop stop-color="#93fabc" offset="0.6666666666666666"></stop></linearGradient><linearGradient x1="0.1" y1="0" x2="0" y2="1" id="SvgjsLinearGradient1141"><stop stop-color="#acfbd9" offset="0"></stop><stop stop-color="#acfbcc" offset="0.8333333333333334"></stop></linearGradient></defs></svg>